<svg width="129" height="90" viewBox="0 0 129 90" fill="none" xmlns="http://www.w3.org/2000/svg">
<circle cx="28" cy="61" r="6" fill="#17A2B8"/>
<path d="M16.793 64.1133L19.2773 66.5977C17.6758 68.1992 15.7422 69 13.4766 69C11.2109 69 9.27734 68.1992 7.67578 66.5977C6.07422 64.9961 5.27344 63.0625 5.27344 60.7969C5.27344 58.5312 6.07422 56.5977 7.67578 54.9961C9.27734 53.3945 11.2109 52.5938 13.4766 52.5938C15.7422 52.5938 17.6758 53.3945 19.2773 54.9961L16.793 57.4805C15.8789 56.5664 14.7734 56.1094 13.4766 56.1094C12.1797 56.1094 11.0742 56.5664 10.1602 57.4805C9.24609 58.3945 8.78906 59.5 8.78906 60.7969C8.78906 62.0938 9.24609 63.1992 10.1602 64.1133C11.0742 65.0273 12.1797 65.4844 13.4766 65.4844C14.7734 65.4844 15.8789 65.0273 16.793 64.1133ZM27.6328 52.5938C29.8984 52.5938 31.832 53.3945 33.4336 54.9961C35.0352 56.5977 35.8359 58.5312 35.8359 60.7969C35.8359 63.0625 35.0352 64.9961 33.4336 66.5977C31.832 68.1992 29.8984 69 27.6328 69C25.3672 69 23.4336 68.1992 21.832 66.5977C20.2305 64.9961 19.4297 63.0625 19.4297 60.7969C19.4297 58.5312 20.2305 56.5977 21.832 54.9961C23.4336 53.3945 25.3672 52.5938 27.6328 52.5938ZM27.6328 56.1094C26.3359 56.1094 25.2305 56.5664 24.3164 57.4805C23.4023 58.3945 22.9453 59.5 22.9453 60.7969C22.9453 62.0938 23.4023 63.1992 24.3164 64.1133C25.2305 65.0273 26.3359 65.4844 27.6328 65.4844C28.9297 65.4844 30.0352 65.0273 30.9492 64.1133C31.8633 63.1992 32.3203 62.0938 32.3203 60.7969C32.3203 59.5 31.8633 58.3945 30.9492 57.4805C30.0352 56.5664 28.9297 56.1094 27.6328 56.1094ZM44.0391 52.5938C46.2812 52.6094 48.1953 53.4102 49.7812 54.9961C51.3828 56.5977 52.1836 58.5312 52.1836 60.7969C52.1836 63.0625 51.3828 64.9961 49.7812 66.5977C48.1953 68.1836 46.2812 68.9844 44.0391 69H38.1797V52.5938H44.0391ZM44.0391 65.4844C45.3125 65.4688 46.3984 65.0117 47.2969 64.1133C48.2109 63.1992 48.668 62.0938 48.668 60.7969C48.668 59.5 48.2109 58.3945 47.2969 57.4805C46.3984 56.582 45.3125 56.125 44.0391 56.1094H41.6953V65.4844H44.0391ZM67.4766 52.5938V56.1094H58.1016V59.0391H65.1328V62.5547H58.1016V65.4844H67.4766V69H54.5859V52.5938H67.4766ZM69.8203 52.5938H73.3359V65.4844H82.7109V69H69.8203V52.5938ZM88.5703 52.5938V69H85.0547V52.5938H88.5703ZM94.4297 59.8125V69H90.9141V52.5469L102.633 61.7812V52.5938H106.148V69.0469L94.4297 59.8125ZM121.383 52.5938V56.1094H112.008V59.0391H119.039V62.5547H112.008V65.4844H121.383V69H108.492V52.5938H121.383Z" fill="black"/>
<path d="M103 80H121" stroke="black" stroke-width="0.5" stroke-linecap="round"/>
<circle cx="101" cy="80" r="2" fill="black"/>
<path d="M24 80L6 80" stroke="black" stroke-width="0.5" stroke-linecap="round"/>
<circle cx="26" cy="80" r="2" transform="rotate(-180 26 80)" fill="black"/>
<path d="M35.8069 75.7969V84H34.0491V75.7969H35.8069ZM38.7366 79.4062V84H36.9788V75.7734L42.8382 80.3906V75.7969H44.596V84.0234L38.7366 79.4062ZM52.2132 75.7969V77.5547H47.5257V79.0195H52.2132V80.7773H47.5257V84H45.7679V75.7969H52.2132ZM57.4866 75.7969C58.6194 75.7969 59.5862 76.1973 60.387 76.998C61.1878 77.7988 61.5882 78.7656 61.5882 79.8984C61.5882 81.0312 61.1878 81.998 60.387 82.7988C59.5862 83.5996 58.6194 84 57.4866 84C56.3538 84 55.387 83.5996 54.5862 82.7988C53.7854 81.998 53.385 81.0312 53.385 79.8984C53.385 78.7656 53.7854 77.7988 54.5862 76.998C55.387 76.1973 56.3538 75.7969 57.4866 75.7969ZM57.4866 77.5547C56.8382 77.5547 56.2854 77.7832 55.8284 78.2402C55.3714 78.6973 55.1429 79.25 55.1429 79.8984C55.1429 80.5469 55.3714 81.0996 55.8284 81.5566C56.2854 82.0137 56.8382 82.2422 57.4866 82.2422C58.135 82.2422 58.6878 82.0137 59.1448 81.5566C59.6018 81.0996 59.8304 80.5469 59.8304 79.8984C59.8304 79.25 59.6018 78.6973 59.1448 78.2402C58.6878 77.7832 58.135 77.5547 57.4866 77.5547ZM66.2288 77.5547V84H64.471V77.5547H62.1272V75.7969H68.5725V77.5547H66.2288ZM76.1897 75.7969V77.5547H71.5022V79.0195H75.0179V80.7773H71.5022V82.2422H76.1897V84H69.7444V75.7969H76.1897ZM83.1214 81.5566L84.3636 82.7988C83.5628 83.5996 82.596 84 81.4632 84C80.3304 84 79.3636 83.5996 78.5628 82.7988C77.762 81.998 77.3616 81.0312 77.3616 79.8984C77.3616 78.7656 77.762 77.7988 78.5628 76.998C79.3636 76.1973 80.3304 75.7969 81.4632 75.7969C82.596 75.7969 83.5628 76.1973 84.3636 76.998L83.1214 78.2402C82.6643 77.7832 82.1116 77.5547 81.4632 77.5547C80.8147 77.5547 80.262 77.7832 79.805 78.2402C79.3479 78.6973 79.1194 79.25 79.1194 79.8984C79.1194 80.5469 79.3479 81.0996 79.805 81.5566C80.262 82.0137 80.8147 82.2422 81.4632 82.2422C82.1116 82.2422 82.6643 82.0137 83.1214 81.5566ZM87.3225 80.7773V84H85.5647V75.7969H87.3225V79.0195H91.4241V75.7969H93.1819V84H91.4241V80.7773H87.3225Z" fill="black"/>
<path d="M81 0V15.673H63.6087L58.4783 0H81Z" fill="#232C42"/>
<path d="M48 0C48 0 55.24 0.0921761 59.2591 6.50435C60.6314 8.73123 61.3503 11.2989 61.3339 13.9146V15.6727H65.6227V14.193C65.63 12.3472 65.4505 10.5054 65.0871 8.69565C64.4609 5.66434 62.7026 1.49392 60.3043 0H48Z" fill="#24425F"/>
<path d="M48 0V34.2922C48.0001 34.7186 48.0432 35.144 48.1285 35.5618C48.6259 38.0053 50.8642 45.5809 59.5946 46.7461H78.3774V33.76H61.3339V13.741C61.3493 11.0836 60.5883 8.47947 59.1443 6.24852C57.3043 3.44348 53.9704 0.511284 48 0Z" fill="#17A2B8"/>
</svg>
